<?xml version="1.0" encoding="iso-8859-1"?>
<!-- Uploaded to: SVG Repo, www.svgrepo.com, Generator: SVG Repo Mixer Tools -->
<svg height="800px" width="800px" version="1.1" id="Layer_1" xmlns="http://www.w3.org/2000/svg" xmlns:xlink="http://www.w3.org/1999/xlink" 
	 viewBox="0 0 496.158 496.158" xml:space="preserve">
<path style="fill:#A076AB;" d="M248.082,0.003C111.07,0.003,0,111.063,0,248.085c0,137.001,111.07,248.07,248.082,248.07
	c137.006,0,248.076-111.069,248.076-248.07C496.158,111.062,385.088,0.003,248.082,0.003z"/>
<g>
	<path style="fill:#DBB595;" d="M300.18,5.5l-16.423,43.487c-7.551,8.793-45.442,56.475-45.442,56.475l-48.559,120.975
		l67.238,29.945l55.801,13.075l30.441,3.971c0,0,27.348-55.021,38.544-90.368c11.02-34.789,12.409-54.792,16.089-88.304
		l15.122-31.987C381.531,34.752,342.895,14.63,300.18,5.5z"/>
	<path style="fill:#DBB595;" d="M219.643,203.361c-9.386-4.133-20.716,1.012-25.325,11.498l-56.939,131.862
		c-4.172,9.504-0.682,20.257,7.83,24.004c8.499,3.737,18.789-0.938,22.973-10.454l61.419-129.301
		C234.215,220.495,229.008,207.487,219.643,203.361z"/>
	<path style="fill:#DBB595;" d="M259.643,220.114c-9.805-4.14-22.214-0.284-26.67,10.271l-63.791,158.536
		c-4.039,9.558-0.106,20.376,8.795,24.132c8.885,3.752,19.374-0.97,23.415-10.536l69.604-155.27
		C275.444,236.697,269.449,224.256,259.643,220.114z"/>
	<path style="fill:#DBB595;" d="M299.022,237.531c-9.476-3.867-21.847,0.931-26.154,11.546l-52.012,131.159
		c-4.324,10.596-0.129,22.326,9.351,26.189c9.483,3.87,20.667-1.595,24.992-12.194l55.563-129.704
		C315.078,253.914,308.505,241.398,299.022,237.531z"/>
	<path style="fill:#DBB595;" d="M339.457,249.959c-8.971-3.504-21.616,1.378-25.783,12.026l-25.927,76.785
		c-3.618,9.252-0.233,19.217,7.545,22.269c7.786,3.04,17.033-1.993,20.649-11.245l26.522-74.863
		C346.638,264.265,348.426,253.466,339.457,249.959z"/>
	<path style="fill:#DBB595;" d="M247.688,99.303c0,0-36.228,22.574-54.657,33.216c-9.391,5.466-21.163,26.371-35.621,44.969
		c-13.877,17.874-31.256,30.612-29.447,37.738c4.969,19.552,32.737,6.441,35.9,4.68c26.869-15.027,51.978-47.621,51.978-47.621
		l45.284-12.431L247.688,99.303z"/>
</g>
<path style="fill:#EFE4DC;" d="M126.781,218.408c19.133-4.204,21.482-30.242,21.482-30.242
	C118.912,212.9,126.781,218.408,126.781,218.408z"/>
<path style="fill:#E8C7AF;" d="M304.228,336.886c-5.739-2.006-11.117-1.558-13.631,5.635c-0.113,0.33-0.621,2.507-0.72,2.855
	c-2.067,7.186,1.195,12.244,6.672,14.158c5.323,1.862,10.769,0.383,13.797-6.342c0.238-0.522,0.848-2.885,1.028-3.404
	C313.891,342.595,309.966,338.894,304.228,336.886z"/>
<path style="fill:#F7F3F0;" d="M303.88,337.711c-5.485-2.012-10.663-1.662-13.186,5.215c-0.116,0.315-1.509,5.217-1.609,5.549
	c-2.09,6.877-1.975,14.939,4.839,17.439c6.811,2.501,11.714-3.204,14.726-9.623c0.234-0.498,1.729-5.576,1.912-6.072
	C313.085,343.343,309.366,339.726,303.88,337.711z"/>
<path style="fill:#EFE4DC;" d="M304.228,337.886c-5.485-2.012-10.663-1.662-13.186,5.215c-0.116,0.315-0.832,2.244-0.931,2.577
	c-2.092,6.876,0.973,11.787,6.208,13.709c5.089,1.868,10.344,0.526,13.356-5.893c0.234-0.499,1.05-2.603,1.233-3.1
	C313.433,343.517,309.715,339.901,304.228,337.886z"/>
<path style="fill:#E8C7AF;" d="M241.998,377.28c-6.913-2.653-13.476-2.305-16.8,6.358c-0.149,0.397-0.848,3.03-0.981,3.449
	c-2.78,8.672,1.007,14.949,7.603,17.479c6.411,2.462,13.095,0.861,17.027-7.214c0.31-0.626,1.139-3.481,1.378-4.105
	C253.551,384.584,248.908,379.934,241.998,377.28z"/>
<path style="fill:#F7F3F0;" d="M241.543,378.271c-6.603-2.65-12.919-2.414-16.242,5.864c-0.153,0.379-2.027,6.296-2.162,6.696
	c-2.796,8.295-2.952,18.113,5.251,21.407c8.198,3.295,14.376-3.47,18.277-11.174c0.305-0.597,2.31-6.723,2.551-7.321
	C252.542,385.464,248.147,380.926,241.543,378.271z"/>
<path style="fill:#EFE4DC;" d="M241.962,378.497c-6.604-2.651-12.919-2.414-16.242,5.864c-0.153,0.379-1.096,2.701-1.229,3.102
	c-2.799,8.294,0.751,14.385,7.055,16.917c6.126,2.46,12.572,1.021,16.475-6.684c0.304-0.598,1.374-3.129,1.615-3.727
	C252.961,385.69,248.566,381.152,241.962,378.497z"/>
<path style="fill:#E8C7AF;" d="M190.459,384.026c-6.721-3.107-13.293-3.197-17.186,5.227c-0.176,0.387-1.047,2.967-1.21,3.376
	c-3.35,8.468,0.011,14.983,6.424,17.947c6.233,2.883,13.009,1.73,17.47-6.065c0.351-0.604,1.367-3.398,1.647-4.004
	C201.499,392.082,197.178,387.134,190.459,384.026z"/>
<path style="fill:#F7F3F0;" d="M189.938,384.984c-6.412-3.083-12.729-3.268-16.597,4.771c-0.178,0.368-2.44,6.147-2.603,6.537
	c-3.341,8.09-4.149,17.876,3.816,21.708c7.96,3.833,14.574-2.505,18.979-9.933c0.344-0.575,2.752-6.555,3.032-7.136
	C200.435,392.893,196.351,388.072,189.938,384.984z"/>
<path style="fill:#EFE4DC;" d="M190.342,385.237c-6.413-3.083-12.729-3.268-16.596,4.771c-0.179,0.368-1.273,2.622-1.433,3.013
	c-3.345,8.09-0.207,14.402,5.914,17.349c5.948,2.862,12.477,1.854,16.882-5.573c0.344-0.577,1.579-3.031,1.86-3.611
	C200.838,393.147,196.755,388.326,190.342,385.237z"/>
<path style="fill:#E8C7AF;" d="M157.792,342.693c-6.721-3.107-13.293-3.197-17.186,5.227c-0.176,0.387-1.047,2.967-1.21,3.376
	c-3.35,8.468,0.011,14.983,6.424,17.947c6.233,2.883,13.009,1.73,17.47-6.065c0.351-0.604,1.367-3.398,1.647-4.004
	C168.832,350.749,164.511,345.801,157.792,342.693z"/>
<path style="fill:#F7F3F0;" d="M157.271,343.651c-6.412-3.083-12.729-3.268-16.597,4.771c-0.178,0.368-2.44,6.147-2.603,6.537
	c-3.341,8.09-4.149,17.876,3.816,21.708c7.96,3.833,14.574-2.505,18.979-9.933c0.344-0.575,2.752-6.555,3.032-7.136
	C167.768,351.56,163.684,346.739,157.271,343.651z"/>
<path style="fill:#EFE4DC;" d="M157.675,343.904c-6.413-3.083-12.729-3.268-16.596,4.771c-0.179,0.368-1.273,2.622-1.433,3.013
	c-3.345,8.09-0.207,14.402,5.914,17.349c5.948,2.862,12.477,1.854,16.882-5.573c0.344-0.577,1.579-3.031,1.86-3.611
	C168.171,351.814,164.088,346.993,157.675,343.904z"/>
<path style="fill:#CEA98D;" d="M226.888,148.489c0,0-9.374,13.749-14.194,22.318c-4.771,8.481-14.952,35.752-14.952,35.752
	s11.206-24.169,17.451-34.413c6.205-10.177,13.837-21.157,13.837-21.157L226.888,148.489z"/>
</svg>